<?xml version="1.0" encoding="utf-8"?>
<!-- Generator: Adobe Illustrator 22.1.0, SVG Export Plug-In . SVG Version: 6.00 Build 0)  -->
<svg version="1.1" id="Layer_1" xmlns="http://www.w3.org/2000/svg" xmlns:xlink="http://www.w3.org/1999/xlink" x="0px" y="0px"
	 viewBox="0 0 300 26" style="enable-background:new 0 0 300 26;" xml:space="preserve">
<style type="text/css">
	.st0{fill:#0F385A;}
</style>
<path class="st0" d="M1,2.3v21.8c0.4,0.9,1.4,1.4,2.3,1.3c1.2-0.1,1.8-1.3,1.8-1.3V2.3C5,1.4,4.3,0.6,3.4,0.5C2.3,0.4,1.3,1.2,1,2.3
	z"/>
<path class="st0" d="M9.5,0.3c0.8-0.2,4.1-1,7.2,0.9c0.6,0.4,2.5,1.5,3.5,3.9c1.6,3.7-0.4,7.2-0.7,7.5c-0.3,0.5-1.3,2-3.3,3.1
	c-3,1.6-7.2,1.5-8.3-0.3c-0.5-0.8-0.3-1.7-0.3-1.7c0.2-1,1.1-1.5,1.3-1.6c0.7,0.1,1.7,0.1,2.8-0.1c1.3-0.2,2.2-0.4,3-1.2
	c0.1-0.1,1.4-1.4,1.1-3.3c-0.2-1.2-1.1-1.9-1.3-2.1C14,5.3,13.1,4.9,12,4.8C10.4,4.8,9.8,5.4,8.9,5C7.9,4.6,7,3.1,7.5,1.8
	C8,0.6,9.4,0.4,9.5,0.3z"/>
<path class="st0" d="M42,5.2c-3.4,1.7-5.5,5.2-5.1,8.9c0.3,3.1,2.4,5.9,5.4,7.1c0.7,1.2,0.8,2.5,0.3,3.2c-0.8,1-2.7,0.4-3.2,0.3
	C35,23.4,30.6,15.7,32.6,9c1.3-4.2,4.7-6.6,6.2-7.6c1.4-1.2,3.4-0.8,4.1,0.4C43.5,2.8,43.2,4.3,42,5.2z"/>
<path class="st0" d="M48.5,5.2c3.4,1.7,5.4,5.2,5,8.9c-0.3,3.1-2.4,5.9-5.3,7.1c-0.7,1.2-0.8,2.5-0.2,3.2c0.8,1,2.6,0.4,3.1,0.3
	c4.3-1.2,8.7-8.9,6.7-15.7c-1.2-4.2-4.6-6.6-6.1-7.6c-1.4-1.2-3.4-0.8-4,0.4C47,2.8,47.3,4.3,48.5,5.2z"/>
<path class="st0" d="M71.2,2.2v22.5c0.4,0.9,1.4,1.5,2.3,1.4c1.2-0.1,1.8-1.3,1.8-1.4V2.2c-0.2-1-0.9-1.7-1.8-1.8
	C72.5,0.2,71.4,1,71.2,2.2z"/>
<path class="st0" d="M90.7,21.8h-12c-0.5,0.5-0.8,1.4-0.7,2.4c0.1,1.3,0.7,1.8,0.7,1.9h12c0.5-0.2,0.9-1,1-1.9
	C91.8,23.1,91.4,22,90.7,21.8z"/>
<path class="st0" d="M105.2,1.8v22.5c0.4,0.9,1.4,1.5,2.3,1.4c1.2-0.1,1.8-1.3,1.8-1.4V1.8c-0.2-1-0.9-1.7-1.8-1.8
	C106.5-0.1,105.4,0.7,105.2,1.8z"/>
<path class="st0" d="M132.8,10.1v14.9c0.4,0.6,1.4,1,2.3,0.9c1.2-0.1,1.8-0.9,1.8-0.9V10.1c-0.2-0.6-0.9-1.1-1.8-1.2
	C134.1,8.9,133.1,9.4,132.8,10.1z"/>
<path class="st0" d="M161,2.2v22.4c0.4,0.9,1.4,1.5,2.3,1.4c1.2-0.1,1.8-1.3,1.8-1.4V2.2c-0.2-1-0.9-1.7-1.8-1.8
	C162.2,0.3,161.2,1,161,2.2z"/>
<g>
	<path class="st0" d="M182.3,22.8l-10.6-10.6c-0.8-0.1-1.7,0.3-2.3,1c-0.8,1-0.7,1.9-0.7,2l10.6,10.6c0.6,0.3,1.5,0.1,2.2-0.5
		C182.3,24.7,182.7,23.6,182.3,22.8z"/>
	<path class="st0" d="M170.3,0.3c0.8-0.2,4.1-1,7.3,0.9c0.6,0.4,2.5,1.5,3.5,3.9c1.6,3.7-0.4,7.2-0.7,7.5c-0.3,0.5-1.3,2-3.3,3.1
		c-3,1.6-7.2,1.5-8.3-0.3c-0.5-0.8-0.3-1.7-0.3-1.7c0.2-1,1.1-1.5,1.3-1.6c0.7,0.1,1.7,0.1,2.8-0.1c1.3-0.2,2.2-0.4,3-1.2
		c0.1-0.1,1.4-1.4,1.1-3.3c-0.2-1.2-1.1-1.9-1.3-2.1c-0.6-0.3-1.5-0.7-2.7-0.8c-1.6-0.1-2.2,0.6-3.1,0.2c-1-0.4-1.9-1.9-1.3-3.2
		C168.8,0.6,170.2,0.4,170.3,0.3z"/>
</g>
<path class="st0" d="M146.4,0l-23.6,0c-1,0.5-1.6,1.4-1.4,2.4c0.1,1.3,1.4,1.8,1.4,1.9l23.6,0c1-0.2,1.8-1,1.9-1.9
	C148.4,1.3,147.6,0.3,146.4,0z"/>
<path class="st0" d="M195.5,2.2v22.4c0.4,0.9,1.4,1.5,2.3,1.4c1.2-0.1,1.8-1.3,1.8-1.4V2.2c-0.2-1-0.9-1.7-1.8-1.8
	C196.7,0.3,195.7,1,195.5,2.2z"/>
<path class="st0" d="M211.7,3.1l8.5,14.2c0.7,0.4,1.7,0.2,2.5-0.3c1-0.7,1-1.8,1.1-1.8L215.3,1c-0.5-0.5-1.5-0.6-2.3-0.2
	C212.1,1.3,211.5,2.3,211.7,3.1z"/>
<path class="st0" d="M237.1,1.3l-13,21.9c-0.2,1.1,0.3,2.1,1.2,2.5c1.1,0.5,2.3-0.4,2.4-0.4l13-21.9c0.4-1,0.2-2.1-0.5-2.7
	C239.3,0.1,238,0.3,237.1,1.3z"/>
<path class="st0" d="M253.5,2.2v22.4c0.4,0.9,1.4,1.5,2.3,1.4c1.2-0.1,1.8-1.3,1.8-1.4V2.2c-0.2-1-0.9-1.7-1.8-1.8
	C254.7,0.3,253.7,1,253.5,2.2z"/>
<path class="st0" d="M278,8.6l-8.2,14.9c0.1,0.8,0.7,1.6,1.5,2c1.1,0.5,2.1,0,2.1,0l8.2-14.9c0.2-0.7-0.2-1.6-1-2.1
	C279.8,7.9,278.6,7.9,278,8.6z"/>
<path class="st0" d="M284,16.3l-10.2,0c-0.4,0.4-0.7,1.4-0.6,2.3c0.1,1.2,0.6,1.8,0.6,1.8l10.2,0c0.4-0.2,0.8-0.9,0.8-1.8
	C284.9,17.6,284.5,16.6,284,16.3z"/>
<path class="st0" d="M283,3.3l12.3,21.8c0.9,0.7,2,0.8,2.8,0.2c1-0.7,0.9-2.1,0.8-2.2L286.7,1.3c-0.7-0.8-1.8-1.2-2.6-0.9
	C283.1,0.8,282.6,2.1,283,3.3z"/>
</svg>
